<?xml version="1.0" encoding="UTF-8" standalone="no"?>
<!-- Created with Inkscape (http://www.inkscape.org/) -->

<svg
   width="210mm"
   height="50mm"
   viewBox="0 0 210 50"
   version="1.1"
   id="svg1"
   xml:space="preserve"
   inkscape:version="1.4.2 (f4327f4, 2025-05-13)"
   xmlns:inkscape="http://www.inkscape.org/namespaces/inkscape"
   xmlns:sodipodi="http://sodipodi.sourceforge.net/DTD/sodipodi-0.dtd"
   xmlns="http://www.w3.org/2000/svg"
   xmlns:svg="http://www.w3.org/2000/svg"><sodipodi:namedview
     id="namedview1"
     pagecolor="#ffffff"
     bordercolor="#000000"
     borderopacity="0.25"
     inkscape:showpageshadow="2"
     inkscape:pageopacity="0.0"
     inkscape:pagecheckerboard="0"
     inkscape:deskcolor="#d1d1d1"
     inkscape:document-units="mm"
     inkscape:zoom="1.0467522"
     inkscape:cx="373.05867"
     inkscape:cy="382.61203"
     inkscape:window-width="2560"
     inkscape:window-height="1377"
     inkscape:window-x="-8"
     inkscape:window-y="-8"
     inkscape:window-maximized="1"
     inkscape:current-layer="layer1" /><defs
     id="defs1" /><g
     inkscape:label="Layer 1"
     inkscape:groupmode="layer"
     id="layer1"><path
       style="fill:#2195ce;stroke:none"
       d="m 187.73567,3.8912214 c -8.82617,1.7161799 -14.53582,8.2539216 -16.34634,16.9443796 -0.67279,3.229376 -0.97394,7.720346 0.54821,10.764661 2.50684,5.013667 9.81008,6.34328 14.90108,5.282645 9.03545,-1.88237 14.05957,-9.156397 15.74831,-17.841416 0.71951,-3.700389 0.73847,-8.146371 -1.4951,-11.3626977 -2.62207,-3.7757638 -9.16185,-4.6031197 -13.35616,-3.7875719 m -174.327696,0.49837 -1.79411,7.4754586 h 12.558771 l -1.79411,9.568587 c 1.416048,0.558981 2.717359,1.834627 4.186257,2.242638 0.875245,0.243117 1.984692,-0.595208 2.691165,-1.046564 2.498667,-1.596365 2.407048,-4.433754 2.94035,-7.176441 0.181694,-0.934395 0.119405,-2.884621 0.996722,-3.438711 0.630495,-0.39821 1.92139,-0.149509 2.641332,-0.149509 h 6.877422 c 0.710415,0 2.300738,0.302231 2.890507,-0.149509 0.822775,-0.630213 0.89534,-3.0716361 1.096407,-4.0367477 0.230487,-1.1063351 0.498361,-2.151348 0.498361,-3.2892019 H 13.407974 m 38.573368,0 0.299018,31.9949636 h 6.578404 l 2.641332,-0.149509 2.790832,-4.933803 4.186256,-8.372514 2.940351,-5.980367 h 0.299018 l 0.299018,19.436193 h 7.176441 l 2.591489,-0.149509 1.395425,-2.840674 2.342305,-5.083312 7.774477,-15.548955 3.837405,-8.3725136 h -5.980367 l -2.342313,0.1495091 -2.491814,4.9338029 -4.784294,10.4656426 -2.342313,5.38233 H 78.892994 L 78.294957,4.3895914 h -5.382331 l -2.292471,0.1495091 -1.046564,2.2426377 -1.79411,3.5882198 -5.083312,9.867606 -2.342313,5.083312 H 60.054837 L 60.353856,4.3895914 H 51.981342 M 92.946856,36.384555 h 8.671534 l 1.69443,-7.475459 3.93707,-16.146991 1.84396,-8.3725136 h -5.68135 l -2.34232,0.1495091 -0.74754,2.2426377 -1.495093,5.9803668 -5.880691,23.62245 m 14.950914,0 h 8.37252 l 1.99346,-8.372514 0.99672,-2.541656 3.88724,-0.149509 2.79083,8.073496 1.14625,2.840674 2.34231,0.149509 h 6.27938 c -0.23607,-2.990202 -2.10775,-6.142049 -3.08985,-8.97055 -0.25774,-0.74229 -1.33615,-2.474275 -0.9469,-3.239378 0.24754,-0.486507 0.89726,-0.560733 1.34559,-0.747546 0.97144,-0.404762 1.90481,-0.984512 2.69116,-1.694425 3.30519,-2.983851 5.69858,-8.836409 3.53838,-13.1568077 -2.85223,-5.704454 -12.11594,-4.1862569 -17.29322,-4.1862569 h -4.48528 c -0.53901,0 -1.26736,-0.134781 -1.6446,0.3488608 -0.468,0.6000078 -0.51556,1.9127575 -0.6977,2.6413227 -0.57273,2.2908741 -1.13191,4.5702681 -1.6446,6.8774221 -1.64678,7.41045 -4.20583,14.658543 -5.58169,22.127358 m 35.58319,-31.9949636 1.49509,14.3528806 2.09313,17.642083 h 6.5784 l 2.64132,-0.149509 1.64461,-2.541656 3.53839,-5.980367 9.61841,-16.146991 4.08659,-7.1764406 h -5.98036 l -2.64133,0.1495091 -3.08987,5.2328212 -7.02693,12.2597523 -2.79083,4.485276 -0.59803,-6.877423 -0.59804,-9.568587 -0.59804,-5.6813486 h -8.37251 m 43.9557,6.3292276 c 2.58949,-0.431591 5.89787,0.06072 6.77775,2.940341 0.37808,1.237393 0.0997,2.899788 0.0997,4.186257 0,4.911939 -2.79392,11.717399 -8.37252,12.259753 -2.45755,0.238937 -5.36132,-0.311758 -6.17971,-2.990184 -0.4126,-1.350328 -0.15561,-2.544868 -0.0997,-3.887238 0.19836,-4.760586 2.35176,-11.605139 7.77448,-12.508929 m -66.6811,8.62169 c 0,-1.950865 0.67796,-3.79834 1.09641,-5.681349 0.15002,-0.675109 0.10793,-1.777867 0.54819,-2.342304 0.56501,-0.724349 2.60565,-0.348861 3.43871,-0.348861 1.43815,0 3.24796,-0.230286 4.48528,0.697704 2.10696,1.580231 0.68502,5.560328 -1.19607,6.678088 -0.96236,0.571847 -2.199,0.780324 -3.28921,0.94688 -1.63091,0.249157 -3.43714,0.04984 -5.08331,0.04984 m -109.440714,0 11.960734,6.628228 3.887238,1.943619 4.485276,-2.491795 10.465642,-5.781034 v -0.598036 l -8.073495,-4.485276 -0.847222,5.382331 -0.398685,2.093128 -4.136424,2.491832 -1.79411,0.847194 -3.289202,-1.79411 -3.040021,-2.043268 0.348856,-2.192813 0.897055,-5.681349 -6.279385,3.23936 -4.186257,2.441989 m -0.598037,1.196073 V 33.69339 l 0.149509,4.684609 3.438711,1.99348 6.877422,3.837378 5.083312,2.641341 -0.299018,-13.156808 -0.149509,-4.435451 -3.73773,-2.242638 -11.362697,-6.478719 m 16.745028,26.313616 4.485275,-2.292462 6.578404,-3.638081 4.335766,-2.541656 0.149509,-4.684609 V 20.835601 l -2.990183,1.445267 -8.372514,4.784294 -3.73773,2.242638 -0.149509,4.983627 -0.299018,12.558771 M -49.684898,89.609822 V 173.33496 H 256.5099 V 89.609822 Z"
       id="path1" /></g></svg>
