<?xml version="1.0" encoding="UTF-8" standalone="no"?>
<!-- Created with Inkscape (http://www.inkscape.org/) -->

<svg
   width="50mm"
   height="50mm"
   viewBox="0 0 50 50"
   version="1.1"
   id="svg1"
   xml:space="preserve"
   inkscape:version="1.4.2 (f4327f4, 2025-05-13)"
   xmlns:inkscape="http://www.inkscape.org/namespaces/inkscape"
   xmlns:sodipodi="http://sodipodi.sourceforge.net/DTD/sodipodi-0.dtd"
   xmlns="http://www.w3.org/2000/svg"
   xmlns:svg="http://www.w3.org/2000/svg"><sodipodi:namedview
     id="namedview1"
     pagecolor="#ffffff"
     bordercolor="#000000"
     borderopacity="0.25"
     inkscape:showpageshadow="2"
     inkscape:pageopacity="0.0"
     inkscape:pagecheckerboard="0"
     inkscape:deskcolor="#d1d1d1"
     inkscape:document-units="mm"
     inkscape:zoom="1.4803312"
     inkscape:cx="220.55875"
     inkscape:cy="210.42588"
     inkscape:window-width="2560"
     inkscape:window-height="1377"
     inkscape:window-x="-8"
     inkscape:window-y="-8"
     inkscape:window-maximized="1"
     inkscape:current-layer="layer1" /><defs
     id="defs1" /><g
     inkscape:label="Layer 1"
     inkscape:groupmode="layer"
     id="layer1"><path
       style="fill:#2195ce;stroke:none"
       d="m 170.54783,7.0036587 c -6.89833,1.3413263 -12.03469,6.0362753 -13.93472,12.8763933 -0.96697,3.481086 -1.7398,8.250239 -0.0441,11.641666 2.25918,4.518361 8.61256,5.563404 13.18506,4.674295 8.05862,-1.566959 12.44333,-8.116688 13.93473,-15.786794 0.603,-3.1012 0.6778,-6.699946 -0.97014,-9.525 -2.23769,-3.8360379 -8.15333,-4.6617303 -12.17084,-3.8805603 m -157.162488,0.4409776 -1.5875,6.6145827 h 11.1125 l -1.5875,8.466666 3.96875,2.072581 2.38125,-1.190625 1.190624,-0.881956 0.485073,-2.116666 1.234719,-6.35 h 8.466666 l 3.042708,-0.308686 0.352781,-1.543397 1.102428,-4.7624997 H 13.385342 m 37.041665,0 0.264583,28.3104147 h 8.466667 l 2.337155,-4.762499 6.129511,-12.435416 h 0.264583 l 0.264583,17.197915 h 6.35 l 2.293053,-0.132291 1.190625,-2.248958 2.38125,-5.291667 6.879166,-13.758332 3.130905,-6.8791667 h -5.291666 l -2.072572,0.1322916 -2.204856,4.3656251 -4.497916,9.789583 -1.807989,4.233333 H 74.239506 L 73.710339,7.4446363 h -4.7625 l -2.028469,0.1322916 -0.661458,1.190625 -1.852084,3.7041661 -4.233333,8.466667 -2.337155,5.027083 H 57.570757 L 57.83534,7.4446363 H 50.427007 M 86.674922,35.755051 h 7.672916 l 1.763894,-7.672916 3.219086,-13.229166 1.631602,-7.4083327 H 95.935338 L 93.862774,7.5769279 93.201316,9.5613028 91.878391,14.852969 86.674922,35.755051 M 106.78325,7.4446363 104.88707,15.646719 99.904088,35.755051 h 7.408332 l 2.38125,-9.789582 3.88056,0.573253 0.79375,2.07258 1.5875,4.7625 0.92604,2.248958 2.33715,0.132291 h 5.55625 l -2.73402,-7.408333 -1.23473,-3.704166 c 4.72516,-0.373039 7.40833,-6.171296 7.40833,-10.318749 0,-1.669133 -0.24806,-3.499738 -1.5875,-4.6743111 -2.42918,-2.1301994 -5.67473,-2.2048556 -8.73125,-2.2048556 h -11.1125 m 24.34167,0 0.79375,6.8791667 1.5875,12.964582 0.70556,6.085417 0.22048,2.07258 1.98438,0.308669 h 4.7625 l 1.94027,-0.529166 2.64583,-4.497917 5.02708,-8.466666 6.5705,-11.112499 2.07256,-3.7041667 h -5.29166 l -2.38125,0.1322916 -2.68994,4.6302081 -6.21771,10.847916 -2.46943,3.96875 -1.05834,-14.816666 -0.52916,-4.7624997 h -7.67292 m 39.15833,5.6003527 c 2.43911,-0.406516 5.34772,0.115448 5.99723,2.866313 0.25459,1.078229 0.0882,2.335824 0.0882,3.439584 0,4.594939 -2.59104,10.353857 -7.67292,10.847916 -2.019,0.196289 -4.54979,-0.506462 -5.20348,-2.645833 -0.28976,-0.948295 -0.0882,-2.190758 -0.0882,-3.175 0,-4.260415 2.07693,-10.532609 6.87917,-11.33298 m -59.00208,7.628813 c 0,-1.85478 0.65477,-3.765629 1.10244,-5.556249 0.12035,-0.481415 0.14621,-1.392696 0.57325,-1.719792 0.52187,-0.399717 1.92903,-0.132292 2.55764,-0.132292 1.37301,0 3.36848,-0.242604 4.40973,0.881939 1.66326,1.796305 0.17147,5.048884 -1.76389,5.909039 -2.11725,0.940995 -4.68106,-0.01893 -6.87917,0.617355 m -99.747911,0 8.73125,4.850705 4.762499,2.734006 3.704167,-1.719791 10.318749,-5.86492 -3.439583,-2.160769 -3.96875,-2.072564 -0.79375,4.7625 -0.308677,1.852083 -3.660072,2.204872 -1.499303,0.79375 -2.998614,-1.631619 -2.513541,-1.631586 0.308681,-2.645833 0.61736,-4.497917 -6.085416,3.130897 -3.175,1.896186 m -0.529167,1.058334 v 11.641666 l 0.132292,4.145127 3.836458,2.248959 7.14375,3.968749 2.645833,1.278831 -0.17639,-12.435416 -0.220485,-3.130914 -3.307291,-1.984375 -10.054167,-5.732627 m 28.310416,0 -9.789583,5.732627 -3.307292,1.984375 -0.132291,4.718414 -0.264584,10.847916 2.645833,-1.278831 7.14375,-3.968749 3.836458,-2.248959 0.132292,-2.557628 v -6.614583 -4.497916 z"
       id="path1" /></g></svg>
